<svg width="24" height="24" viewBox="0 0 24 24" fill="none" xmlns="http://www.w3.org/2000/svg">
  <path d="M22.5006 12.2336C22.5006 11.3702 22.4291 10.7402 22.2744 10.0869H12.2148V14.0702H18.1196C18.0006 14.9336 17.3577 16.2702 15.9291 17.1569L15.9058 17.3091L19.1291 19.8569L19.3577 19.8802C21.3577 17.9569 22.5006 15.3702 22.5006 12.2336" fill="#4285F4"/>
  <path d="M12.214 22.4999C15.1069 22.4999 17.5354 21.5332 19.3569 19.8799L15.9283 17.1565C15.0283 17.7865 13.8283 18.2265 12.214 18.2265C9.27402 18.2265 6.78545 16.3032 5.88117 13.6665L5.73974 13.6779L2.38831 16.3179L2.33545 16.4565C4.14259 20.0665 7.91688 22.4999 12.214 22.4999Z" fill="#34A853"/>
  <path d="M5.88117 13.6667C5.65903 12.9667 5.53117 12.2334 5.53117 11.5C5.53117 10.7667 5.65903 10.0334 5.86831 9.33337L5.86117 9.17337L2.46831 6.49337L2.33545 6.54337C1.69259 7.96671 1.32688 9.53337 1.32688 11.2334C1.32688 12.9334 1.69259 14.5 2.33545 15.9234L5.88117 13.6667Z" fill="#FBBC05"/>
  <path d="M12.214 4.77333C14.1183 4.77333 15.4069 5.63333 16.1497 6.32666L19.2212 3.34666C17.5226 1.77333 15.1069 0.75 12.214 0.75C7.91688 0.75 4.14259 3.18334 2.33545 6.79334L5.86831 9.33334C6.78545 6.69667 9.27402 4.77333 12.214 4.77333Z" fill="#EB4335"/>
</svg> 