<svg width="24" height="24" viewBox="0 0 24 24" fill="none" xmlns="http://www.w3.org/2000/svg">
  <path d="M21 3H3V21H21V3Z" fill="#0077B5"/>
  <path d="M8.67188 18.375H5.89453V9.67188H8.67188V18.375ZM7.28125 8.46094C6.42188 8.46094 5.71875 7.75781 5.71875 6.89844C5.71875 6.03906 6.42188 5.33594 7.28125 5.33594C8.14062 5.33594 8.84375 6.03906 8.84375 6.89844C8.84375 7.75781 8.14062 8.46094 7.28125 8.46094ZM18.375 18.375H15.6094V14.2031C15.6094 13.1719 15.5859 11.8359 14.1562 11.8359C12.7031 11.8359 12.4688 12.9609 12.4688 14.1328V18.375H9.70313V9.67188H12.3516V10.8984H12.3984C12.75 10.1719 13.6875 9.39844 15.0938 9.39844C17.9062 9.39844 18.375 11.25 18.375 13.6641V18.375Z" fill="white"/>
</svg> 